Amber dreams of escaping her small town existence and persuades her friends to accompany her to find an apartment in the big city. When their transportation breaks down, she and her friends gratefully accept a ride in the back of a semi. But when the driver refuses to stop and they discover the cargo is hundreds of cartons of blood, they panic. Their panic turns to terror when the truck disgorges them into a dark, abandoned warehouse where blood-thirsty creatures learn to hunt human prey, which, the friends realize, is what they now are...
 
http://www.imdb.com/title/tt1559033/

Subtitles: Dutch, English.


Amber droomt ervan het kleine stadje waar ze woont te verlaten, en haar vrienden helpen haar met het zoeken naar een appartement in de grote stad. Als hun auto het begeeft, krijgen ze een lift aangeboden, die ze dankbaar accepteren. Maar dan weigert de bestuurder te stoppen en ontdekken ze dat hij bloed transporteert. Hierdoor slaat de paniek snel toe. Dan stopt de vrachtwagen, en komen de vrienden erachter dat ze zich in een donker pakhuis bevinden. Hier worden ze opgejaagd door een groep wezens, die moeten leren jagen op mensen...
 
http://www.moviemeter.nl/film/64981

Ondertitels: Engels, Nederlands.

General
Complete name                    : Prowl-AC3-XviD-DVDRip 2010.avi
Format                           : AVI
Format/Info                      : Audio Video Interleave
File size                        : 1.05 GiB
Duration                         : 1h 24mn
Overall bit rate                 : 1 784 Kbps
Writing application              : VirtualDubMod 1.5.4.1 (build 2178/release)
Writing library                  : VirtualDubMod build 2178/release

Video
ID                               : 0
Format                           : MPEG-4 Visual
Format profile                   : Simple@L3
Format settings, BVOP            : No
Format settings, QPel            : No
Format settings, GMC             : No warppoints
Format settings, Matrix          : Default (H.263)
Codec ID                         : XVID
Codec ID/Hint                    : XviD
Duration                         : 1h 24mn
Bit rate                         : 1 326 Kbps
Width                            : 720 pixels
Height                           : 304 pixels
Display aspect ratio             : 2.35:1
Frame rate                       : 23.976 fps
Resolution                       : 8 bits
Colorimetry                      : 4:2:0
Scan type                        : Progressive
Bits/(Pixel*Frame)               : 0.253
Stream size                      : 800 MiB (74%)
Writing library                  : XviD 1.1.2 (UTC 2006-11-01)

Audio
ID                               : 1
Format                           : AC-3
Format/Info                      : Audio Coding 3
Codec ID                         : 2000
Duration                         : 1h 24mn
Bit rate mode                    : Constant
Bit rate                         : 448 Kbps
Channel(s)                       : 6 channels
Channel positions                : Front: L C R, Surround: L R, LFE
Sampling rate                    : 48.0 KHz
Stream size                      : 270 MiB (25%)
Alignment                        : Split accross interleaves
Interleave, duration             : 42 ms (1.00 video frame)
Interleave, preload duration     : 500 ms

Thanks to Filmofiel.

Enjoy.

TBS.